<svg xmlns="http://www.w3.org/2000/svg" xmlns:xlink="http://www.w3.org/1999/xlink" width="500" zoomAndPan="magnify" viewBox="0 0 375 374.999991" height="500" preserveAspectRatio="xMidYMid meet" version="1.0"><defs><g/><clipPath id="f1ca3c01e0"><path d="M 10 123.480469 L 165.152344 123.480469 L 165.152344 167.128906 L 10 167.128906 Z M 10 123.480469 " clip-rule="nonzero"/></clipPath></defs><g fill="#ffffff" fill-opacity="1"><g transform="translate(179.001448, 173.026663)"><g><path d="M 3.628906 -48.613281 L 3.628906 0 L 15.09375 0 L 15.09375 -18.574219 L 52.242188 -18.574219 L 52.242188 -30.039062 L 15.09375 -30.039062 L 15.09375 -37.148438 L 52.242188 -37.148438 L 52.242188 -48.613281 Z M 3.628906 -48.613281 "/></g></g></g><g fill="#ffffff" fill-opacity="1"><g transform="translate(234.869998, 173.026663)"><g><path d="M 15.09375 -48.613281 L 3.628906 -48.613281 L 3.628906 0 L 15.09375 0 Z M 15.09375 -48.613281 "/></g></g></g><g fill="#ffffff" fill-opacity="1"><g transform="translate(253.589618, 173.026663)"><g><path d="M 52.242188 0 L 52.242188 -11.464844 L 15.09375 -11.464844 L 15.09375 -48.613281 L 3.628906 -48.613281 L 3.628906 0 Z M 52.242188 0 "/></g></g></g><g fill="#ffffff" fill-opacity="1"><g transform="translate(309.458168, 173.026663)"><g><path d="M 52.242188 -48.613281 L 3.628906 -48.613281 L 3.628906 0 L 15.09375 0 L 15.09375 -9.289062 L 40.777344 -9.289062 L 40.777344 0 L 52.242188 0 Z M 15.09375 -20.75 L 15.09375 -37.148438 L 40.777344 -37.148438 L 40.777344 -20.75 Z M 15.09375 -20.75 "/></g></g></g><g fill="#ffffff" fill-opacity="1"><g transform="translate(9.654532, 241.140648)"><g><path d="M 53.984375 -48.613281 L 41.574219 -48.613281 L 35.625 -11.464844 L 21.984375 -11.464844 L 16.035156 -48.613281 L 3.628906 -48.613281 L 11.464844 0 L 46.148438 0 Z M 53.984375 -48.613281 "/></g></g></g><g fill="#ffffff" fill-opacity="1"><g transform="translate(67.264448, 241.140648)"><g><path d="M 15.09375 -48.613281 L 3.628906 -48.613281 L 3.628906 0 L 15.09375 0 Z M 15.09375 -48.613281 "/></g></g></g><g fill="#ffffff" fill-opacity="1"><g transform="translate(85.984036, 241.140648)"><g><path d="M 3.628906 -48.613281 L 3.628906 0 L 15.09375 0 L 15.09375 -9.289062 L 29.097656 -9.289062 L 38.164062 0 L 52.097656 0 L 42.882812 -9.289062 L 52.242188 -9.289062 L 52.242188 -48.613281 Z M 15.09375 -20.75 L 15.09375 -37.148438 L 40.777344 -37.148438 L 40.777344 -20.75 Z M 15.09375 -20.75 "/></g></g></g><g fill="#ffffff" fill-opacity="1"><g transform="translate(141.852586, 241.140648)"><g><path d="M 3.628906 -48.613281 L 3.628906 -37.148438 L 22.203125 -37.148438 L 22.203125 0 L 33.667969 0 L 33.667969 -37.148438 L 52.242188 -37.148438 L 52.242188 -48.613281 Z M 3.628906 -48.613281 "/></g></g></g><g fill="#ffffff" fill-opacity="1"><g transform="translate(197.721153, 241.140648)"><g><path d="M 15.09375 -48.613281 L 3.628906 -48.613281 L 3.628906 0 L 52.242188 0 L 52.242188 -48.613281 L 40.777344 -48.613281 L 40.777344 -11.464844 L 15.09375 -11.464844 Z M 15.09375 -48.613281 "/></g></g></g><g fill="#ffffff" fill-opacity="1"><g transform="translate(253.589717, 241.140648)"><g><path d="M 52.242188 -48.613281 L 3.628906 -48.613281 L 3.628906 0 L 15.09375 0 L 15.09375 -9.289062 L 40.777344 -9.289062 L 40.777344 0 L 52.242188 0 Z M 15.09375 -20.75 L 15.09375 -37.148438 L 40.777344 -37.148438 L 40.777344 -20.75 Z M 15.09375 -20.75 "/></g></g></g><g fill="#ffffff" fill-opacity="1"><g transform="translate(309.45827, 241.140648)"><g><path d="M 52.242188 0 L 52.242188 -11.464844 L 15.09375 -11.464844 L 15.09375 -48.613281 L 3.628906 -48.613281 L 3.628906 0 Z M 52.242188 0 "/></g></g></g><g clip-path="url(#f1ca3c01e0)"><path fill="#ef1a23" d="M 163.769531 123.613281 C 164.359375 123.773438 164.792969 124.304688 164.808594 124.929688 C 165.019531 128.296875 165.082031 131.667969 165.105469 135.03125 C 165.121094 136.714844 165.097656 138.398438 165.070312 140.082031 C 165.050781 140.921875 164.878906 141.765625 164.730469 142.605469 C 164.417969 144.285156 164.484375 145.96875 164.5 147.660156 C 164.652344 152.238281 164.421875 156.976562 164.242188 161.546875 L 164.214844 162.179688 C 164.21875 162.285156 164.183594 162.386719 164.171875 162.496094 C 164.296875 163.222656 164.539062 164.070312 164.710938 164.847656 C 164.753906 164.96875 164.78125 165.101562 164.789062 165.238281 C 164.796875 165.269531 164.804688 165.304688 164.808594 165.335938 C 164.976562 166.105469 164.484375 166.859375 163.710938 167.023438 C 163.289062 167.121094 162.867188 167.007812 162.546875 166.765625 C 144.585938 167.050781 124.65625 167.054688 106.636719 167.007812 C 102.695312 166.984375 98.753906 166.714844 94.816406 166.566406 C 79.84375 166.210938 64.863281 166.652344 49.886719 166.40625 C 44.121094 166.332031 28.269531 166.253906 22.691406 166.117188 C 19.394531 166.273438 15.363281 166.589844 12.050781 166.75 C 12.042969 166.75 12.039062 166.746094 12.03125 166.746094 C 10.359375 166.992188 9.660156 164.472656 11.539062 163.96875 C 36.296875 157.238281 62.371094 150.414062 87.117188 143.355469 C 108.652344 137.46875 141.054688 129.304688 162.914062 123.566406 C 163.207031 123.488281 163.503906 123.511719 163.769531 123.613281 Z M 163.769531 123.613281 " fill-opacity="1" fill-rule="nonzero"/></g><path fill="#ef1a23" d="M 146.386719 147.84375 C 146.378906 147.84375 146.371094 147.84375 146.363281 147.847656 C 146.304688 147.855469 146.246094 147.867188 146.191406 147.882812 C 145.898438 147.976562 145.671875 148.214844 145.59375 148.523438 C 145.59375 148.535156 145.59375 148.546875 145.589844 148.554688 C 145.585938 148.578125 145.578125 148.59375 145.574219 148.617188 C 145.570312 148.632812 145.574219 148.644531 145.574219 148.660156 C 145.570312 148.679688 145.566406 148.707031 145.5625 148.726562 C 145.398438 150.136719 145.328125 151.550781 145.257812 152.964844 C 145.078125 157.183594 145.085938 161.476562 145.5625 165.679688 C 145.628906 166.847656 147.304688 166.847656 147.351562 165.679688 L 147.351562 149.703125 C 148.46875 149.804688 149.585938 149.863281 150.710938 149.917969 C 154.945312 150.097656 159.253906 150.089844 163.472656 149.613281 C 164.648438 149.550781 164.648438 147.878906 163.472656 147.832031 L 146.453125 147.832031 C 146.433594 147.835938 146.410156 147.839844 146.386719 147.84375 Z M 146.386719 147.84375 " fill-opacity="1" fill-rule="nonzero"/></svg>