<svg xmlns="http://www.w3.org/2000/svg" xmlns:xlink="http://www.w3.org/1999/xlink" width="360" zoomAndPan="magnify" viewBox="0 0 270 416.99999" height="556" preserveAspectRatio="xMidYMid meet" version="1.0"><defs><clipPath id="647bc54cbe"><path d="M 7.046875 14 L 214 14 L 214 403 L 7.046875 403 Z M 7.046875 14 " clip-rule="nonzero"/></clipPath></defs><g clip-path="url(#647bc54cbe)"><path fill="#3879bd" d="M 64.304688 218.480469 C 64.175781 217.964844 64.035156 217.453125 63.910156 216.933594 C 63.390625 214.722656 62.929688 212.484375 62.535156 210.226562 C 62.449219 209.734375 62.382812 209.234375 62.304688 208.742188 C 62.007812 206.902344 61.75 205.050781 61.539062 203.1875 C 61.464844 202.523438 61.386719 201.863281 61.320312 201.195312 C 61.109375 199.03125 60.9375 196.855469 60.832031 194.664062 C 60.824219 194.492188 60.804688 194.324219 60.796875 194.15625 C 60.695312 191.804688 60.671875 189.433594 60.691406 187.054688 C 60.695312 186.394531 60.714844 185.730469 60.730469 185.066406 C 60.769531 183.195312 60.851562 181.320312 60.964844 179.4375 C 61 178.839844 61.027344 178.246094 61.070312 177.648438 C 61.25 175.261719 61.476562 172.871094 61.769531 170.476562 C 61.820312 170.050781 61.890625 169.628906 61.945312 169.207031 C 62.234375 166.992188 62.578125 164.777344 62.964844 162.5625 C 63.070312 161.9375 63.175781 161.316406 63.292969 160.691406 C 63.769531 158.152344 64.292969 155.617188 64.894531 153.085938 C 65.023438 152.554688 65.167969 152.023438 65.300781 151.488281 C 65.707031 149.84375 66.136719 148.199219 66.59375 146.558594 C 66.808594 145.800781 67.03125 145.046875 67.257812 144.292969 C 67.683594 142.839844 68.132812 141.390625 68.605469 139.945312 C 68.863281 139.148438 69.125 138.351562 69.398438 137.554688 C 69.808594 136.347656 70.242188 135.148438 70.683594 133.949219 C 70.980469 133.132812 71.277344 132.316406 71.589844 131.503906 C 72.070312 130.25 72.582031 129.003906 73.09375 127.757812 C 73.402344 127.011719 73.699219 126.261719 74.019531 125.515625 C 74.523438 124.339844 75.058594 123.171875 75.589844 122.003906 C 75.925781 121.269531 76.246094 120.527344 76.589844 119.796875 C 77.222656 118.460938 77.886719 117.136719 78.554688 115.816406 C 78.832031 115.265625 79.09375 114.707031 79.378906 114.160156 C 80.339844 112.300781 81.332031 110.460938 82.363281 108.640625 C 82.492188 108.410156 82.636719 108.1875 82.765625 107.957031 C 83.671875 106.371094 84.601562 104.796875 85.558594 103.238281 C 85.882812 102.707031 86.234375 102.191406 86.566406 101.664062 C 87.371094 100.382812 88.183594 99.109375 89.027344 97.851562 C 89.476562 97.179688 89.949219 96.519531 90.410156 95.851562 C 91.164062 94.765625 91.917969 93.679688 92.695312 92.613281 C 93.15625 91.980469 93.632812 91.359375 94.101562 90.734375 C 95.015625 89.515625 95.945312 88.304688 96.894531 87.113281 C 97.414062 86.460938 97.9375 85.816406 98.46875 85.175781 C 99.425781 84.011719 100.402344 82.863281 101.390625 81.730469 C 101.882812 81.167969 102.367188 80.605469 102.867188 80.050781 C 104.640625 78.078125 106.460938 76.148438 108.332031 74.273438 C 108.691406 73.917969 109.0625 73.570312 109.421875 73.21875 C 111.050781 71.621094 112.71875 70.066406 114.417969 68.550781 C 114.890625 68.128906 115.359375 67.699219 115.839844 67.28125 C 117.628906 65.730469 119.441406 64.210938 121.304688 62.753906 C 134.125 52.734375 147.449219 45.996094 160.546875 42.402344 C 162.71875 41.804688 164.886719 41.3125 167.042969 40.890625 C 167.742188 40.753906 168.433594 40.660156 169.125 40.539062 C 170.71875 40.265625 172.308594 40.007812 173.890625 39.828125 C 174.21875 39.792969 174.550781 39.753906 174.882812 39.71875 C 176.867188 39.519531 178.835938 39.390625 180.796875 39.335938 C 181.117188 39.328125 181.4375 39.324219 181.753906 39.320312 C 183.6875 39.289062 185.605469 39.328125 187.503906 39.441406 C 188.199219 39.480469 188.878906 39.570312 189.566406 39.628906 C 190.949219 39.75 192.332031 39.886719 193.695312 40.082031 C 194.480469 40.195312 195.257812 40.347656 196.039062 40.484375 C 197.328125 40.714844 198.613281 40.960938 199.882812 41.261719 C 200.523438 41.414062 201.164062 41.574219 201.800781 41.742188 C 203.179688 42.109375 204.539062 42.523438 205.890625 42.96875 C 206.421875 43.148438 206.957031 43.304688 207.484375 43.496094 C 209.359375 44.167969 211.210938 44.902344 213.023438 45.738281 L 159.367188 21 C 157.753906 20.253906 156.109375 19.574219 154.445312 18.957031 C 154.242188 18.882812 154.03125 18.828125 153.828125 18.753906 C 153.300781 18.566406 152.765625 18.40625 152.234375 18.230469 C 150.886719 17.78125 149.523438 17.367188 148.144531 17.003906 C 147.507812 16.832031 146.871094 16.671875 146.226562 16.519531 C 145.726562 16.402344 145.242188 16.253906 144.738281 16.148438 C 143.964844 15.984375 143.167969 15.882812 142.382812 15.742188 C 141.601562 15.605469 140.824219 15.453125 140.039062 15.339844 C 138.675781 15.144531 137.292969 15.007812 135.910156 14.886719 C 135.222656 14.828125 134.542969 14.738281 133.847656 14.699219 C 133.6875 14.6875 133.535156 14.664062 133.375 14.65625 C 131.632812 14.5625 129.867188 14.550781 128.097656 14.578125 C 127.777344 14.582031 127.460938 14.585938 127.140625 14.59375 C 125.179688 14.648438 123.210938 14.777344 121.226562 14.976562 C 120.894531 15.011719 120.566406 15.050781 120.234375 15.085938 C 119.71875 15.144531 119.203125 15.1875 118.6875 15.257812 C 117.621094 15.398438 116.542969 15.613281 115.46875 15.796875 C 114.773438 15.917969 114.085938 16.011719 113.386719 16.148438 C 111.230469 16.574219 109.0625 17.0625 106.890625 17.660156 C 93.796875 21.253906 80.46875 27.992188 67.648438 38.011719 C 65.785156 39.46875 63.972656 40.988281 62.183594 42.539062 C 61.996094 42.703125 61.796875 42.847656 61.613281 43.011719 C 61.320312 43.269531 61.050781 43.550781 60.761719 43.808594 C 59.0625 45.324219 57.394531 46.878906 55.765625 48.476562 C 55.40625 48.828125 55.035156 49.175781 54.675781 49.53125 C 52.804688 51.40625 50.984375 53.335938 49.210938 55.308594 C 49.0625 55.476562 48.898438 55.628906 48.75 55.796875 C 48.402344 56.1875 48.078125 56.597656 47.734375 56.992188 C 46.746094 58.125 45.769531 59.269531 44.8125 60.429688 C 44.285156 61.074219 43.757812 61.71875 43.238281 62.375 C 42.289062 63.5625 41.363281 64.769531 40.445312 65.988281 C 40.128906 66.410156 39.792969 66.816406 39.476562 67.242188 C 39.324219 67.449219 39.183594 67.664062 39.03125 67.875 C 38.257812 68.9375 37.507812 70.019531 36.757812 71.101562 C 36.292969 71.773438 35.820312 72.433594 35.363281 73.113281 C 34.527344 74.359375 33.71875 75.632812 32.917969 76.902344 C 32.617188 77.378906 32.300781 77.839844 32.003906 78.316406 C 31.96875 78.375 31.933594 78.441406 31.898438 78.5 C 30.957031 80.027344 30.050781 81.570312 29.164062 83.121094 C 29.011719 83.382812 28.851562 83.636719 28.703125 83.898438 C 27.675781 85.71875 26.683594 87.558594 25.722656 89.410156 C 25.699219 89.457031 25.675781 89.5 25.652344 89.542969 C 25.382812 90.066406 25.136719 90.597656 24.875 91.121094 C 24.214844 92.425781 23.558594 93.730469 22.9375 95.050781 C 22.589844 95.785156 22.265625 96.53125 21.929688 97.269531 C 21.398438 98.4375 20.863281 99.601562 20.363281 100.773438 C 20.292969 100.9375 20.214844 101.097656 20.144531 101.261719 C 19.898438 101.839844 19.683594 102.429688 19.441406 103.007812 C 18.929688 104.257812 18.417969 105.503906 17.933594 106.761719 C 17.621094 107.574219 17.328125 108.390625 17.027344 109.207031 C 16.589844 110.40625 16.15625 111.605469 15.742188 112.808594 C 15.621094 113.171875 15.480469 113.53125 15.359375 113.890625 C 15.210938 114.328125 15.09375 114.769531 14.949219 115.210938 C 14.480469 116.648438 14.035156 118.09375 13.605469 119.539062 C 13.382812 120.300781 13.152344 121.058594 12.9375 121.824219 C 12.480469 123.457031 12.054688 125.097656 11.648438 126.742188 C 11.539062 127.183594 11.40625 127.621094 11.300781 128.0625 C 11.277344 128.15625 11.261719 128.25 11.242188 128.34375 C 10.640625 130.875 10.113281 133.410156 9.640625 135.949219 C 9.519531 136.574219 9.417969 137.199219 9.308594 137.824219 C 8.921875 140.039062 8.578125 142.25 8.289062 144.460938 C 8.25 144.769531 8.1875 145.082031 8.148438 145.390625 C 8.132812 145.503906 8.128906 145.617188 8.113281 145.734375 C 7.820312 148.128906 7.59375 150.519531 7.414062 152.90625 C 7.371094 153.503906 7.34375 154.097656 7.308594 154.695312 C 7.195312 156.578125 7.113281 158.453125 7.074219 160.324219 C 7.058594 160.988281 7.039062 161.652344 7.035156 162.3125 C 7.011719 164.691406 7.039062 167.058594 7.140625 169.414062 C 7.148438 169.582031 7.167969 169.75 7.175781 169.921875 C 7.28125 172.113281 7.453125 174.289062 7.664062 176.453125 C 7.730469 177.121094 7.808594 177.785156 7.882812 178.449219 C 8.09375 180.3125 8.351562 182.160156 8.648438 183.996094 C 8.726562 184.492188 8.792969 184.992188 8.878906 185.484375 C 9.273438 187.746094 9.730469 189.980469 10.253906 192.191406 C 10.375 192.710938 10.519531 193.222656 10.648438 193.738281 C 11.089844 195.492188 11.574219 197.234375 12.097656 198.953125 C 12.285156 199.570312 12.46875 200.1875 12.667969 200.792969 C 13.367188 202.953125 14.113281 205.097656 14.949219 207.195312 L 105.6875 377.726562 L 159.34375 402.46875 L 68.605469 231.9375 C 67.769531 229.839844 67.023438 227.699219 66.324219 225.535156 C 66.125 224.925781 65.941406 224.3125 65.753906 223.695312 C 65.230469 221.976562 64.746094 220.234375 64.304688 218.480469 Z M 64.304688 218.480469 " fill-opacity="1" fill-rule="nonzero"/></g><path fill="#2c3092" d="M 251.769531 88.722656 C 235.746094 48.484375 199.132812 31.816406 160.550781 42.40625 C 147.453125 46 134.128906 52.734375 121.304688 62.753906 C 70.734375 102.3125 47.121094 178.050781 68.605469 231.9375 L 159.34375 402.46875 L 251.441406 181.765625 C 261.796875 150.351562 262.828125 116.433594 251.769531 88.722656 Z M 251.769531 88.722656 " fill-opacity="1" fill-rule="nonzero"/><path fill="#ffffff" d="M 160.359375 102.691406 C 188.585938 94.945312 211.363281 115.769531 211.246094 149.21875 C 211.128906 182.640625 188.160156 216.019531 159.933594 223.765625 C 131.722656 231.507812 108.925781 210.6875 109.042969 177.261719 C 109.160156 143.816406 132.148438 110.433594 160.359375 102.691406 Z M 160.359375 102.691406 " fill-opacity="1" fill-rule="nonzero"/></svg>