<svg xmlns="http://www.w3.org/2000/svg" xmlns:xlink="http://www.w3.org/1999/xlink" width="360" zoomAndPan="magnify" viewBox="0 0 270 416.99999" height="556" preserveAspectRatio="xMidYMid meet" version="1.0"><defs><clipPath id="d139afac99"><path d="M 11.816406 116.113281 L 257.816406 116.113281 L 257.816406 300.613281 L 11.816406 300.613281 Z M 11.816406 116.113281 " clip-rule="nonzero"/></clipPath></defs><g clip-path="url(#d139afac99)"><path fill="#000000" d="M 42.566406 116.113281 L 81.003906 154.550781 L 119.441406 116.113281 Z M 81.003906 162.238281 C 59.804688 162.238281 42.566406 179.472656 42.566406 200.675781 C 42.566406 215.183594 50.738281 227.675781 62.628906 234.21875 C 33.433594 242.328125 11.816406 268.875 11.816406 300.613281 L 27.191406 300.613281 C 27.191406 270.941406 51.335938 246.800781 81.003906 246.800781 C 110.671875 246.800781 134.816406 270.941406 134.816406 300.613281 L 150.191406 300.613281 C 150.191406 285.316406 145.03125 271.300781 136.589844 259.832031 C 140.824219 247.546875 152.351562 239.113281 165.566406 239.113281 C 182.503906 239.113281 196.316406 252.925781 196.316406 269.863281 L 211.691406 269.863281 L 211.691406 254.488281 C 211.691406 246.019531 218.597656 239.113281 227.066406 239.113281 C 235.53125 239.113281 242.441406 246.019531 242.441406 254.488281 L 257.8125 254.488281 C 257.8125 237.550781 244 223.738281 227.066406 223.738281 C 215.535156 223.738281 205.503906 230.101562 200.21875 239.472656 C 196.703125 235.457031 192.386719 232.25 187.695312 229.652344 C 193.023438 224.121094 196.316406 216.617188 196.316406 208.363281 C 196.316406 191.425781 182.503906 177.613281 165.566406 177.613281 C 148.628906 177.613281 134.816406 191.425781 134.816406 208.363281 C 134.816406 216.539062 138.105469 223.953125 143.34375 229.472656 C 135.710938 233.675781 129.460938 240.078125 125.207031 247.851562 C 117.738281 241.582031 109.03125 236.898438 99.382812 234.21875 C 111.273438 227.675781 119.441406 215.183594 119.441406 200.675781 C 119.441406 179.472656 102.203125 162.238281 81.003906 162.238281 Z M 227.066406 223.738281 C 235.53125 223.738281 242.441406 216.832031 242.441406 208.363281 C 242.441406 199.894531 235.53125 192.988281 227.066406 192.988281 C 218.597656 192.988281 211.691406 199.894531 211.691406 208.363281 C 211.691406 216.832031 218.597656 223.738281 227.066406 223.738281 Z M 81.003906 177.613281 C 93.738281 177.613281 104.066406 187.941406 104.066406 200.675781 C 104.066406 213.40625 93.738281 223.738281 81.003906 223.738281 C 68.273438 223.738281 57.941406 213.40625 57.941406 200.675781 C 57.941406 187.941406 68.273438 177.613281 81.003906 177.613281 Z M 165.566406 192.988281 C 174.035156 192.988281 180.941406 199.894531 180.941406 208.363281 C 180.941406 216.832031 174.035156 223.738281 165.566406 223.738281 C 157.097656 223.738281 150.191406 216.832031 150.191406 208.363281 C 150.191406 199.894531 157.097656 192.988281 165.566406 192.988281 Z M 165.566406 192.988281 " fill-opacity="1" fill-rule="nonzero"/></g></svg>